<svg width="339" height="170" viewBox="0 0 339 170" fill="none" xmlns="http://www.w3.org/2000/svg">
<rect width="339" height="170" fill="white"/>
<path d="M47.664 31.36C47.664 34.912 46.56 37.864 44.352 40.216C42.144 42.52 39.216 44.128 35.568 45.04L50.328 67H42.84L29.232 45.76H22.536V67H16.344V17.392H29.016C35.16 17.392 39.792 18.568 42.912 20.92C46.08 23.272 47.664 26.752 47.664 31.36ZM41.04 31.36C41.04 28.192 40.128 25.912 38.304 24.52C36.48 23.128 33.624 22.432 29.736 22.432H22.536V40.864H29.808C33.504 40.864 36.288 40.12 38.16 38.632C40.08 37.096 41.04 34.672 41.04 31.36ZM86.5879 58.72C86.5879 60.208 86.8279 61.312 87.3079 62.032C87.7879 62.704 88.5799 63.208 89.6839 63.544L88.1719 67.864C84.4759 67.384 82.1719 65.584 81.2599 62.464C79.9159 64.192 78.2119 65.512 76.1479 66.424C74.1319 67.336 71.8759 67.792 69.3799 67.792C65.5879 67.792 62.5879 66.736 60.3799 64.624C58.2199 62.512 57.1399 59.68 57.1399 56.128C57.1399 52.24 58.6519 49.24 61.6759 47.128C64.7479 45.016 69.1399 43.96 74.8519 43.96H80.4679V40.864C80.4679 38.176 79.6999 36.256 78.1639 35.104C76.6279 33.904 74.3959 33.304 71.4679 33.304C68.5879 33.304 65.2999 33.952 61.6039 35.248L59.9479 30.64C64.4119 29.056 68.5639 28.264 72.4039 28.264C77.0119 28.264 80.5159 29.344 82.9159 31.504C85.3639 33.664 86.5879 36.664 86.5879 40.504V58.72ZM70.8919 63.256C72.7639 63.256 74.5399 62.776 76.2199 61.816C77.9479 60.856 79.3639 59.536 80.4679 57.856V48.136H74.9959C70.9639 48.136 68.0599 48.808 66.2839 50.152C64.5079 51.496 63.6199 53.464 63.6199 56.056C63.6199 60.856 66.0439 63.256 70.8919 63.256ZM119.536 28.264C128.704 28.264 133.288 34.84 133.288 47.992C133.288 53.992 132.04 58.792 129.544 62.392C127.048 65.992 123.424 67.792 118.672 67.792C114.544 67.792 111.184 66.352 108.592 63.472V81.544L102.544 82.264V29.056H107.728L108.232 34.384C109.624 32.416 111.28 30.904 113.2 29.848C115.168 28.792 117.28 28.264 119.536 28.264ZM118.096 33.16C116.176 33.16 114.4 33.736 112.768 34.888C111.184 36.04 109.792 37.48 108.592 39.208V58C109.6 59.488 110.848 60.664 112.336 61.528C113.872 62.344 115.528 62.752 117.304 62.752C120.472 62.752 122.824 61.552 124.36 59.152C125.944 56.704 126.736 52.984 126.736 47.992C126.736 43 126.04 39.28 124.648 36.832C123.256 34.384 121.072 33.16 118.096 33.16ZM160.116 11.344C161.46 11.344 162.54 11.752 163.356 12.568C164.172 13.336 164.58 14.344 164.58 15.592C164.58 16.84 164.172 17.872 163.356 18.688C162.54 19.456 161.46 19.84 160.116 19.84C158.82 19.84 157.764 19.456 156.948 18.688C156.18 17.872 155.796 16.84 155.796 15.592C155.796 14.344 156.18 13.336 156.948 12.568C157.764 11.752 158.82 11.344 160.116 11.344ZM164.94 62.176H175.596V67H147.228V62.176H158.892V33.88H147.588V29.056H164.94V62.176ZM217.688 13.792V67H212.36L211.784 62.032C210.392 63.952 208.784 65.392 206.96 66.352C205.136 67.312 203.168 67.792 201.056 67.792C196.256 67.792 192.632 66.04 190.184 62.536C187.784 59.032 186.584 54.208 186.584 48.064C186.584 44.272 187.184 40.888 188.384 37.912C189.584 34.888 191.288 32.536 193.496 30.856C195.752 29.128 198.392 28.264 201.416 28.264C205.592 28.264 209 29.776 211.64 32.8V13.072L217.688 13.792ZM203 33.16C199.832 33.16 197.384 34.408 195.656 36.904C193.976 39.4 193.136 43.12 193.136 48.064C193.136 52.96 193.904 56.68 195.44 59.224C197.024 61.72 199.304 62.968 202.28 62.968C205.88 62.968 209 60.952 211.64 56.92V38.056C210.584 36.472 209.312 35.272 207.824 34.456C206.336 33.592 204.728 33.16 203 33.16ZM87.3079 103.392H93.5719L77.0119 153H70.5319L53.9719 103.392H60.6679L73.9159 145.872L87.3079 103.392ZM116.944 97.344C118.288 97.344 119.368 97.752 120.184 98.568C121 99.336 121.408 100.344 121.408 101.592C121.408 102.84 121 103.872 120.184 104.688C119.368 105.456 118.288 105.84 116.944 105.84C115.648 105.84 114.592 105.456 113.776 104.688C113.008 103.872 112.624 102.84 112.624 101.592C112.624 100.344 113.008 99.336 113.776 98.568C114.592 97.752 115.648 97.344 116.944 97.344ZM121.768 148.176H132.424V153H104.056V148.176H115.72V119.88H104.416V115.056H121.768V148.176ZM158.676 148.824C161.556 148.824 163.836 148.272 165.516 147.168C167.196 146.064 168.036 144.6 168.036 142.776C168.036 141.528 167.82 140.52 167.388 139.752C166.956 138.936 166.092 138.216 164.796 137.592C163.5 136.92 161.532 136.248 158.892 135.576C154.476 134.472 151.212 133.152 149.1 131.616C146.988 130.032 145.932 127.704 145.932 124.632C145.932 121.464 147.252 118.944 149.892 117.072C152.532 115.2 156.012 114.264 160.332 114.264C165.612 114.264 170.22 115.656 174.156 118.44L171.42 122.616C169.836 121.512 168.18 120.672 166.452 120.096C164.724 119.472 162.732 119.16 160.476 119.16C155.004 119.16 152.268 120.816 152.268 124.128C152.268 125.28 152.556 126.216 153.132 126.936C153.756 127.656 154.74 128.304 156.084 128.88C157.476 129.408 159.54 130.056 162.276 130.824C166.404 131.928 169.476 133.344 171.492 135.072C173.556 136.752 174.588 139.224 174.588 142.488C174.588 146.28 173.052 149.112 169.98 150.984C166.908 152.856 163.14 153.792 158.676 153.792C152.724 153.792 147.78 152.088 143.844 148.68L147.228 144.72C148.764 145.968 150.516 146.976 152.484 147.744C154.452 148.464 156.516 148.824 158.676 148.824ZM203.288 97.344C204.632 97.344 205.712 97.752 206.528 98.568C207.344 99.336 207.752 100.344 207.752 101.592C207.752 102.84 207.344 103.872 206.528 104.688C205.712 105.456 204.632 105.84 203.288 105.84C201.992 105.84 200.936 105.456 200.12 104.688C199.352 103.872 198.968 102.84 198.968 101.592C198.968 100.344 199.352 99.336 200.12 98.568C200.936 97.752 201.992 97.344 203.288 97.344ZM208.112 148.176H218.768V153H190.4V148.176H202.064V119.88H190.76V115.056H208.112V148.176ZM246.531 114.264C251.763 114.264 255.771 116.04 258.555 119.592C261.387 123.096 262.803 127.896 262.803 133.992C262.803 139.944 261.363 144.744 258.483 148.392C255.651 151.992 251.643 153.792 246.459 153.792C241.227 153.792 237.195 152.04 234.363 148.536C231.531 144.984 230.115 140.16 230.115 134.064C230.115 128.064 231.531 123.264 234.363 119.664C237.243 116.064 241.299 114.264 246.531 114.264ZM246.531 119.232C243.219 119.232 240.747 120.456 239.115 122.904C237.483 125.352 236.667 129.072 236.667 134.064C236.667 139.056 237.459 142.776 239.043 145.224C240.675 147.624 243.147 148.824 246.459 148.824C249.771 148.824 252.219 147.624 253.803 145.224C255.435 142.776 256.251 139.032 256.251 133.992C256.251 129 255.435 125.304 253.803 122.904C252.219 120.456 249.795 119.232 246.531 119.232ZM275.231 115.056H280.415L280.919 120.384C282.407 118.464 284.279 116.976 286.535 115.92C288.839 114.816 291.143 114.264 293.447 114.264C300.551 114.264 304.103 118.008 304.103 125.496V153H298.055V129.96C298.055 127.128 297.887 124.968 297.551 123.48C297.263 121.992 296.663 120.888 295.751 120.168C294.839 119.448 293.447 119.088 291.575 119.088C289.511 119.088 287.567 119.712 285.743 120.96C283.919 122.208 282.431 123.696 281.279 125.424V153H275.231V115.056Z" fill="black"/>
<rect x="93.5" y="19.5" width="44" height="69" stroke="black"/>
<circle cx="137.5" cy="19.5" r="3" fill="white" stroke="black"/>
<circle cx="93.5" cy="19.5" r="3" fill="white" stroke="black"/>
<circle cx="137.5" cy="88.5" r="3" fill="white" stroke="black"/>
<circle cx="93.5" cy="88.5" r="3" fill="white" stroke="black"/>
<circle cx="203.3" cy="101.7" r="6" stroke="black"/>
<circle cx="202" cy="100" r="1" fill="white"/>
</svg>
